<svg width="431" height="479" viewBox="0 0 431 479" fill="none" xmlns="http://www.w3.org/2000/svg">
<path d="M273.44 269.307C245.894 297.416 216.099 324.715 216.099 324.715C216.099 324.715 185.883 297.416 158.337 269.307C130.79 240.918 66.4224 189.731 66.4224 148.412C66.4224 106.812 80.1954 71.6762 107.742 43.0057C135.288 14.3352 171.407 -2.93788e-07 216.099 -4.18854e-07C260.791 -5.43921e-07 296.91 14.3352 324.457 43.0057C352.003 71.6762 365.776 106.812 365.776 148.412C365.776 189.731 300.986 240.918 273.44 269.307ZM216.099 269.307C239.991 269.307 259.105 219.104 273.44 203.645C287.775 188.185 294.943 169.493 294.943 147.569C294.943 125.363 287.775 106.671 273.44 91.4925C259.386 76.033 240.272 68.3032 216.099 68.3032C191.926 68.3032 172.672 76.033 158.337 91.4925C144.282 106.671 137.255 125.363 137.255 147.569C137.255 169.493 144.282 188.185 158.337 203.645C172.672 219.104 191.926 269.307 216.099 269.307Z" fill="white"/>
<rect x="0.940674" y="381.997" width="423.714" height="106.179" rx="6.08931" transform="rotate(-24.1583 0.940674 381.997)" fill="#FFF50F"/>
<path d="M90.7682 366.768L112.14 414.417L103.606 418.244L88.0398 383.539L88.8853 424.847L82.6271 427.655L52.4103 399.521L67.977 434.226L59.443 438.054L38.0707 390.405L49.8761 385.11L80.1247 413.315L79.1761 371.968L90.7682 366.768ZM145.56 400.622C138.259 403.897 131.211 404.182 124.417 401.478C117.623 398.774 112.673 393.96 109.569 387.038C106.442 380.069 106.105 373.158 108.556 366.307C111.033 359.387 115.946 354.279 123.295 350.983C130.691 347.665 137.762 347.369 144.509 350.095C151.303 352.8 156.274 357.66 159.421 364.677C162.547 371.647 162.861 378.568 160.363 385.44C157.891 392.244 152.956 397.305 145.56 400.622ZM141.828 392.302C146.711 390.111 149.934 386.758 151.496 382.242C153.084 377.657 152.847 373.065 150.784 368.466C148.722 363.867 145.461 360.66 141.001 358.844C136.568 356.96 131.91 357.113 127.027 359.303C122.191 361.473 118.979 364.85 117.391 369.435C115.829 373.951 116.079 378.509 118.142 383.107C120.205 387.706 123.452 390.948 127.885 392.832C132.345 394.648 136.992 394.471 141.828 392.302ZM167.787 332.222L191.753 321.472L195.486 329.793L172.017 340.319C170.5 341 169.493 341.993 168.996 343.297C168.478 344.555 168.485 345.776 169.017 346.962C169.484 348.005 170.218 348.815 171.217 349.391C172.264 349.947 173.467 350.091 174.827 349.822L193.959 346.196C197.755 345.518 201.096 345.984 203.983 347.594C206.848 349.156 208.929 351.384 210.226 354.276C211.863 357.926 212.021 361.643 210.699 365.425C209.425 369.186 206.607 372.044 202.245 374.001L177.212 385.229L173.48 376.909L198.157 365.84C199.769 365.117 200.826 364.045 201.327 362.624C201.829 361.203 201.793 359.852 201.219 358.572C200.73 357.482 199.927 356.645 198.812 356.064C197.676 355.434 196.404 355.265 194.996 355.554L175.793 359.213C172.066 359.917 168.804 359.501 166.007 357.964C163.237 356.359 161.214 354.135 159.938 351.29C158.365 347.781 158.212 344.205 159.482 340.56C160.752 336.915 163.52 334.136 167.787 332.222ZM252.351 329.059L261.241 325.072C262.818 331.255 262.279 337.163 259.623 342.797C256.968 348.43 252.463 352.671 246.11 355.521C238.904 358.754 231.951 358.996 225.252 356.249C218.552 353.502 213.65 348.668 210.545 341.746C207.419 334.776 207.058 327.877 209.462 321.046C211.844 314.169 216.638 309.114 223.845 305.882C230.056 303.096 236.126 302.537 242.057 304.205C247.988 305.873 252.74 309.294 256.314 314.468L247.424 318.455C245.008 315.609 242.016 313.762 238.446 312.915C234.877 312.067 231.278 312.485 227.648 314.17C222.976 316.323 219.869 319.681 218.328 324.245C216.814 328.74 217.077 333.263 219.119 337.815C221.16 342.366 224.374 345.595 228.759 347.5C233.171 349.337 237.724 349.203 242.417 347.097C246.258 345.375 249.038 342.875 250.757 339.598C252.476 336.321 253.008 332.808 252.351 329.059ZM300.503 331.124C293.202 334.399 286.154 334.684 279.36 331.979C272.566 329.275 267.616 324.462 264.511 317.54C261.385 310.57 261.048 303.66 263.499 296.808C265.976 289.888 270.889 284.78 278.237 281.484C285.634 278.167 292.705 277.871 299.452 280.596C306.246 283.301 311.217 288.162 314.364 295.178C317.49 302.148 317.804 309.069 315.306 315.941C312.833 322.745 307.899 327.806 300.503 331.124ZM296.771 322.803C301.654 320.613 304.877 317.259 306.439 312.743C308.027 308.158 307.79 303.566 305.727 298.967C303.664 294.368 300.403 291.161 295.944 289.345C291.511 287.461 286.853 287.614 281.97 289.805C277.134 291.974 273.922 295.351 272.333 299.936C270.771 304.452 271.022 309.01 273.084 313.609C275.147 318.208 278.395 321.449 282.828 323.333C287.287 325.149 291.935 324.972 296.771 322.803ZM368.357 283.176L363.176 244.582L372.421 240.435L379.499 294.495L370.182 298.673L345.582 269.729L350.839 307.35L341.522 311.529L305.856 270.292L315.101 266.145L340.479 295.68L334.871 257.277L343.405 253.449L368.357 283.176Z" fill="black"/>
</svg>
