<svg width="895" height="269" viewBox="0 0 895 269" fill="none" xmlns="http://www.w3.org/2000/svg">
<g clip-path="url(#clip0_115_328)">
<rect width="107.136" height="268.429" rx="4.70929" fill="white"/>
<path d="M0 156.795L8.68471 152.764C12.865 150.824 17.6245 150.537 22.0075 151.962L43.1013 158.817C44.2224 159.181 45.453 158.89 46.2917 158.061V158.061C50.2378 154.164 55.4534 151.814 60.9874 151.442L84.0794 149.887C85.4421 149.795 86.7408 149.275 87.7899 148.4L95.2532 142.181C97.2491 140.517 99.9527 139.98 102.433 140.754L113.023 144.06V156.795V268.429H0V156.795Z" fill="#FF0000"/>
<ellipse rx="4.92116" ry="4.86069" transform="matrix(-1 0 0 1 39.2328 206.25)" fill="white"/>
<ellipse rx="2.13201" ry="2.10581" transform="matrix(-1 0 0 1 48.8012 183.675)" fill="white"/>
<ellipse rx="2.13201" ry="2.10581" transform="matrix(-1 0 0 1 69.6806 219.029)" fill="white"/>
<ellipse rx="2.13201" ry="2.10581" transform="matrix(-1 0 0 1 46.6698 227.6)" fill="white"/>
<ellipse rx="7.05317" ry="6.9665" transform="matrix(-1 0 0 1 69.681 167.719)" fill="white"/>
</g>
<g clip-path="url(#clip1_115_328)">
<rect x="112.434" y="161.293" width="107.136" height="107.136" rx="5.88661" fill="#FF0000"/>
<rect x="98.5427" y="258.039" width="65.7771" height="19.4971" transform="rotate(-18.5035 98.5427 258.039)" fill="white"/>
<rect x="160.919" y="268.429" width="65.7771" height="17.6374" transform="rotate(-18.5035 160.919 268.429)" fill="white"/>
<rect x="123.735" y="263.983" width="65.7771" height="17.6374" transform="rotate(-18.5035 123.735 263.983)" fill="white"/>
<rect x="112.434" y="237.164" width="65.7771" height="15.7837" transform="rotate(17.7282 112.434 237.164)" fill="white"/>
<rect x="133.43" y="228.681" width="65.7771" height="15.7837" transform="rotate(36.7833 133.43 228.681)" fill="white"/>
<rect x="141.358" y="284.196" width="65.7771" height="15.7837" transform="rotate(-63.6293 141.358 284.196)" fill="white"/>
</g>
<g clip-path="url(#clip2_115_328)">
<rect x="224.869" y="161.293" width="107.136" height="107.136" rx="5.88661" fill="white"/>
<path d="M290.133 226.027C290.221 226.737 290.559 230.499 291.198 239.871L296.256 243.599L289.467 242.534L287.736 244.663L293.328 248.258L282.012 254.914L293.328 256.644L302.912 253.183L304.51 259.573L318.088 257.976L312.231 253.982L313.828 245.728L318.088 239.871L313.029 231.085L304.51 226.825L305.841 232.15L300.649 233.481L296.256 234.28L290.133 226.027Z" fill="#FF0000"/>
<path d="M250.885 233.087C250.312 233.515 247.207 235.667 239.374 240.852L238.633 247.092L236.204 240.663L233.498 240.211L233.135 246.848L221.758 240.298L225.843 250.991L233.588 257.614L228.822 262.16L236.919 273.176L237.497 266.111L245.462 263.422L252.659 264.232L257.799 255.493L257.294 245.981L253.322 249.769L249.599 245.913L246.735 242.488L250.885 233.087Z" fill="#FF0000"/>
<path d="M268.201 218.694C267.628 219.122 264.523 221.274 256.69 226.46L255.949 232.7L253.52 226.271L250.814 225.818L250.451 232.455L239.074 225.906L243.159 236.599L250.904 243.222L246.138 247.768L254.235 258.784L254.813 251.718L262.778 249.03L269.975 249.839L275.115 241.101L274.61 231.589L270.638 235.377L266.915 231.521L264.051 228.096L268.201 218.694Z" fill="#FF0000"/>
<path d="M288.12 218.694C287.547 219.122 284.442 221.274 276.609 226.46L275.868 232.7L273.44 226.271L270.733 225.818L270.37 232.455L258.993 225.906L263.078 236.599L270.823 243.222L266.057 247.768L274.154 258.784L274.732 251.718L282.697 249.03L289.894 249.839L295.034 241.101L294.529 231.589L290.557 235.377L286.834 231.521L283.97 228.096L288.12 218.694Z" fill="#FF0000"/>
<path d="M280.051 233.287C279.478 233.715 276.373 235.867 268.541 241.052L267.799 247.292L265.371 240.863L262.664 240.411L262.301 247.048L250.924 240.498L255.01 251.191L262.754 257.814L257.988 262.36L266.085 273.376L266.663 266.311L274.629 263.622L281.826 264.432L286.965 255.693L286.46 246.181L282.488 249.969L278.766 246.113L275.901 242.688L280.051 233.287Z" fill="#FF0000"/>
<path d="M268.201 240.483C267.628 240.911 264.523 243.063 256.69 248.248L255.949 254.488L253.52 248.059L250.814 247.607L250.451 254.244L239.074 247.694L243.159 258.387L250.904 265.01L246.138 269.556L254.235 280.572L254.813 273.507L262.778 270.818L269.975 271.628L275.115 262.889L274.61 253.377L270.638 257.165L266.915 253.309L264.051 249.884L268.201 240.483Z" fill="#FF0000"/>
<path d="M244.205 241.383C243.579 241.85 240.186 244.202 231.628 249.868L230.818 256.686L228.164 249.661L225.207 249.167L224.81 256.419L212.379 249.262L216.843 260.946L225.305 268.183L220.097 273.15L228.945 285.188L229.577 277.467L238.28 274.529L246.144 275.414L251.76 265.866L251.208 255.472L246.868 259.611L242.801 255.398L239.67 251.656L244.205 241.383Z" fill="#FF0000"/>
<path d="M304.277 233.087C303.703 233.515 300.598 235.667 292.766 240.852L292.024 247.092L289.596 240.663L286.889 240.211L286.527 246.848L275.149 240.298L279.235 250.991L286.98 257.614L282.213 262.16L290.31 273.176L290.889 266.111L298.854 263.422L306.051 264.232L311.191 255.493L310.685 245.981L306.713 249.769L302.991 245.913L300.126 242.488L304.277 233.087Z" fill="#FF0000"/>
<path d="M297.367 249.66C296.794 250.088 293.689 252.24 285.857 257.426L285.115 263.665L282.687 257.237L279.98 256.784L279.617 263.421L268.24 256.872L272.326 267.564L280.07 274.188L275.304 278.733L283.401 289.75L283.98 282.684L291.945 279.995L299.142 280.805L304.281 272.067L303.776 262.555L299.804 266.343L296.082 262.487L293.217 259.062L297.367 249.66Z" fill="#FF0000"/>
<path d="M317.287 244.124C316.713 244.552 313.608 246.704 305.776 251.89L305.034 258.129L302.606 251.7L299.899 251.248L299.537 257.885L288.159 251.336L292.245 262.028L299.989 268.652L295.223 273.197L303.32 284.214L303.899 277.148L311.864 274.459L319.061 275.269L324.201 266.531L323.695 257.019L319.723 260.807L316.001 256.951L313.136 253.526L317.287 244.124Z" fill="#FF0000"/>
<path d="M322.958 226.09C322.385 226.518 319.28 228.67 311.447 233.856L310.706 240.095L308.278 233.666L305.571 233.214L305.208 239.851L293.831 233.301L297.917 243.994L305.661 250.618L300.895 255.163L308.992 266.18L309.57 259.114L317.535 256.425L324.733 257.235L329.872 248.496L329.367 238.985L325.395 242.773L321.673 238.916L318.808 235.492L322.958 226.09Z" fill="#FF0000"/>
<path d="M322.958 209.117C322.385 209.545 319.28 211.697 311.447 216.883L310.706 223.122L308.278 216.693L305.571 216.241L305.208 222.878L293.831 216.329L297.917 227.021L305.661 233.645L300.895 238.19L308.992 249.207L309.57 242.141L317.535 239.452L324.733 240.262L329.872 231.524L329.367 222.012L325.395 225.8L321.673 221.944L318.808 218.519L322.958 209.117Z" fill="#FF0000"/>
<path d="M305.19 215.312C304.479 215.387 300.71 215.65 291.327 216.104L287.501 221.088L288.7 214.321L286.604 212.549L282.9 218.068L276.469 206.624L274.515 217.902L277.787 227.554L271.367 229.025L272.696 242.632L276.804 236.854L285.024 238.614L290.797 242.989L299.681 238.105L304.108 229.671L298.758 230.897L297.529 225.68L296.817 221.272L305.19 215.312Z" fill="#FF0000"/>
<path d="M337.045 229.566C336.337 230.094 332.504 232.751 322.834 239.153L321.919 246.857L318.921 238.92L315.579 238.361L315.131 246.555L301.085 238.469L306.129 251.67L315.69 259.847L309.806 265.459L319.803 279.06L320.517 270.337L330.35 267.017L339.236 268.017L345.581 257.229L344.957 245.485L340.053 250.162L335.458 245.401L331.921 241.173L337.045 229.566Z" fill="#FF0000"/>
</g>
<g clip-path="url(#clip3_115_328)">
<rect x="337.303" y="161.293" width="107.136" height="107.136" rx="5.88661" fill="#FF0000"/>
<path d="M335.447 214.861C394.503 241.121 407.899 235.562 407.216 229.499C417.957 238.149 441.431 247.775 449.398 217.079" stroke="white" stroke-width="5.29795"/>
<path d="M334.487 245.661L336.566 215.702L359.154 226.819L381.986 231.671L395.326 233.575H409.09L428.041 237.911L444.451 233.575L462.437 245.661V307.472H334.487V245.661Z" fill="white"/>
</g>
<g clip-path="url(#clip4_115_328)">
<rect x="449.737" width="107.136" height="268.429" rx="4.70929" fill="white"/>
<path d="M449.737 156.795L458.422 152.764C462.602 150.824 467.361 150.537 471.744 151.962L492.838 158.817C493.959 159.181 495.19 158.89 496.029 158.061V158.061C499.975 154.164 505.19 151.814 510.724 151.442L533.816 149.887C535.179 149.795 536.478 149.275 537.527 148.4L544.99 142.181C546.986 140.517 549.69 139.98 552.17 140.754L562.76 144.06V156.795V268.429H449.737V156.795Z" fill="#FF0000"/>
<ellipse rx="4.92116" ry="4.86069" transform="matrix(-1 0 0 1 488.97 206.25)" fill="white"/>
<ellipse rx="2.13201" ry="2.10581" transform="matrix(-1 0 0 1 498.538 183.675)" fill="white"/>
<ellipse rx="2.13201" ry="2.10581" transform="matrix(-1 0 0 1 519.418 219.029)" fill="white"/>
<ellipse rx="2.13201" ry="2.10581" transform="matrix(-1 0 0 1 496.407 227.6)" fill="white"/>
<ellipse rx="7.05317" ry="6.9665" transform="matrix(-1 0 0 1 519.418 167.719)" fill="white"/>
</g>
<g clip-path="url(#clip5_115_328)">
<rect x="562.171" y="161.293" width="107.136" height="107.136" rx="5.88661" fill="#FF0000"/>
<rect x="548.28" y="258.039" width="65.7771" height="19.4971" transform="rotate(-18.5035 548.28 258.039)" fill="white"/>
<rect x="610.656" y="268.429" width="65.7771" height="17.6374" transform="rotate(-18.5035 610.656 268.429)" fill="white"/>
<rect x="573.472" y="263.983" width="65.7771" height="17.6374" transform="rotate(-18.5035 573.472 263.983)" fill="white"/>
<rect x="562.171" y="237.164" width="65.7771" height="15.7837" transform="rotate(17.7282 562.171 237.164)" fill="white"/>
<rect x="583.167" y="228.681" width="65.7771" height="15.7837" transform="rotate(36.7833 583.167 228.681)" fill="white"/>
<rect x="591.095" y="284.196" width="65.7771" height="15.7837" transform="rotate(-63.6293 591.095 284.196)" fill="white"/>
</g>
<g clip-path="url(#clip6_115_328)">
<rect x="674.605" y="161.293" width="107.136" height="107.136" rx="5.88661" fill="white"/>
<path d="M739.869 226.027C739.958 226.737 740.296 230.499 740.934 239.871L745.993 243.599L739.204 242.534L737.473 244.663L743.065 248.258L731.749 254.914L743.065 256.644L752.649 253.183L754.247 259.573L767.825 257.976L761.968 253.982L763.565 245.728L767.825 239.871L762.766 231.085L754.247 226.825L755.578 232.15L750.386 233.481L745.993 234.28L739.869 226.027Z" fill="#FF0000"/>
<path d="M700.622 233.087C700.049 233.515 696.944 235.667 689.111 240.852L688.37 247.092L685.941 240.663L683.235 240.211L682.872 246.848L671.495 240.298L675.58 250.991L683.325 257.614L678.558 262.16L686.656 273.176L687.234 266.111L695.199 263.422L702.396 264.232L707.536 255.493L707.03 245.981L703.059 249.769L699.336 245.913L696.471 242.488L700.622 233.087Z" fill="#FF0000"/>
<path d="M717.938 218.694C717.365 219.122 714.26 221.274 706.427 226.46L705.686 232.7L703.257 226.271L700.551 225.818L700.188 232.455L688.811 225.906L692.896 236.599L700.641 243.222L695.875 247.768L703.972 258.784L704.55 251.718L712.515 249.03L719.712 249.839L724.852 241.101L724.347 231.589L720.375 235.377L716.652 231.521L713.788 228.096L717.938 218.694Z" fill="#FF0000"/>
<path d="M737.857 218.694C737.284 219.122 734.179 221.274 726.346 226.46L725.605 232.7L723.177 226.271L720.47 225.818L720.107 232.455L708.73 225.906L712.815 236.599L720.56 243.222L715.794 247.768L723.891 258.784L724.469 251.718L732.434 249.03L739.631 249.839L744.771 241.101L744.266 231.589L740.294 235.377L736.571 231.521L733.707 228.096L737.857 218.694Z" fill="#FF0000"/>
<path d="M729.788 233.287C729.215 233.715 726.11 235.867 718.278 241.052L717.536 247.292L715.108 240.863L712.401 240.411L712.038 247.048L700.661 240.498L704.747 251.191L712.491 257.814L707.725 262.36L715.822 273.376L716.4 266.311L724.366 263.622L731.563 264.432L736.702 255.693L736.197 246.181L732.225 249.969L728.503 246.113L725.638 242.688L729.788 233.287Z" fill="#FF0000"/>
<path d="M717.938 240.483C717.365 240.911 714.26 243.063 706.427 248.248L705.686 254.488L703.257 248.059L700.551 247.607L700.188 254.244L688.811 247.694L692.896 258.387L700.641 265.01L695.875 269.556L703.972 280.572L704.55 273.507L712.515 270.818L719.712 271.628L724.852 262.889L724.347 253.377L720.375 257.165L716.652 253.309L713.788 249.884L717.938 240.483Z" fill="#FF0000"/>
<path d="M693.942 241.383C693.316 241.85 689.923 244.202 681.365 249.868L680.555 256.686L677.901 249.661L674.944 249.167L674.547 256.419L662.116 249.262L666.58 260.946L675.042 268.183L669.834 273.15L678.682 285.188L679.314 277.467L688.017 274.529L695.881 275.414L701.497 265.866L700.945 255.472L696.605 259.611L692.537 255.398L689.407 251.656L693.942 241.383Z" fill="#FF0000"/>
<path d="M754.014 233.087C753.44 233.515 750.335 235.667 742.503 240.852L741.761 247.092L739.333 240.663L736.626 240.211L736.264 246.848L724.886 240.298L728.972 250.991L736.716 257.614L731.95 262.16L740.047 273.176L740.626 266.111L748.591 263.422L755.788 264.232L760.928 255.493L760.422 245.981L756.45 249.769L752.728 245.913L749.863 242.488L754.014 233.087Z" fill="#FF0000"/>
<path d="M747.104 249.66C746.531 250.088 743.426 252.24 735.594 257.426L734.852 263.665L732.424 257.237L729.717 256.784L729.354 263.421L717.977 256.872L722.063 267.564L729.807 274.188L725.041 278.733L733.138 289.75L733.716 282.684L741.682 279.995L748.879 280.805L754.018 272.067L753.513 262.555L749.541 266.343L745.819 262.487L742.954 259.062L747.104 249.66Z" fill="#FF0000"/>
<path d="M767.024 244.124C766.45 244.552 763.345 246.704 755.513 251.89L754.771 258.129L752.343 251.7L749.636 251.248L749.274 257.885L737.896 251.336L741.982 262.028L749.726 268.652L744.96 273.197L753.057 284.214L753.636 277.148L761.601 274.459L768.798 275.269L773.938 266.531L773.432 257.019L769.46 260.807L765.738 256.951L762.873 253.526L767.024 244.124Z" fill="#FF0000"/>
<path d="M772.695 226.09C772.122 226.518 769.017 228.67 761.184 233.856L760.443 240.095L758.015 233.666L755.308 233.214L754.945 239.851L743.568 233.301L747.654 243.994L755.398 250.618L750.632 255.163L758.729 266.18L759.307 259.114L767.272 256.425L774.469 257.235L779.609 248.496L779.104 238.985L775.132 242.773L771.409 238.916L768.545 235.492L772.695 226.09Z" fill="#FF0000"/>
<path d="M772.695 209.117C772.122 209.545 769.017 211.697 761.184 216.883L760.443 223.122L758.015 216.693L755.308 216.241L754.945 222.878L743.568 216.329L747.654 227.021L755.398 233.645L750.632 238.19L758.729 249.207L759.307 242.141L767.272 239.452L774.469 240.262L779.609 231.524L779.104 222.012L775.132 225.8L771.409 221.944L768.545 218.519L772.695 209.117Z" fill="#FF0000"/>
<path d="M754.927 215.312C754.216 215.387 750.447 215.65 741.064 216.104L737.238 221.088L738.437 214.321L736.341 212.549L732.637 218.068L726.206 206.624L724.252 217.902L727.524 227.554L721.103 229.025L722.433 242.632L726.541 236.854L734.761 238.614L740.533 242.989L749.418 238.105L753.845 229.671L748.495 230.897L747.266 225.68L746.554 221.272L754.927 215.312Z" fill="#FF0000"/>
<path d="M786.782 229.566C786.074 230.094 782.241 232.751 772.571 239.153L771.656 246.857L768.658 238.92L765.316 238.361L764.868 246.555L750.822 238.469L755.866 251.67L765.427 259.847L759.543 265.459L769.539 279.06L770.254 270.337L780.087 267.017L788.973 268.017L795.318 257.229L794.694 245.485L789.79 250.162L785.195 245.401L781.658 241.173L786.782 229.566Z" fill="#FF0000"/>
</g>
<g clip-path="url(#clip7_115_328)">
<rect x="787.04" y="161.293" width="107.136" height="107.136" rx="5.88661" fill="#FF0000"/>
<path d="M785.184 214.861C844.24 241.121 857.636 235.562 856.953 229.499C867.694 238.149 891.168 247.775 899.135 217.079" stroke="white" stroke-width="5.29795"/>
<path d="M784.224 245.661L786.303 215.702L808.891 226.819L831.723 231.671L845.063 233.575H858.827L877.778 237.911L894.188 233.575L912.174 245.661V307.472H784.224V245.661Z" fill="white"/>
</g>
<defs>
<clipPath id="clip0_115_328">
<rect width="107.136" height="268.429" rx="4.70929" fill="white"/>
</clipPath>
<clipPath id="clip1_115_328">
<rect x="112.434" y="161.293" width="107.136" height="107.136" rx="5.88661" fill="white"/>
</clipPath>
<clipPath id="clip2_115_328">
<rect x="224.869" y="161.293" width="107.136" height="107.136" rx="5.88661" fill="white"/>
</clipPath>
<clipPath id="clip3_115_328">
<rect x="337.303" y="161.293" width="107.136" height="107.136" rx="5.88661" fill="white"/>
</clipPath>
<clipPath id="clip4_115_328">
<rect x="449.737" width="107.136" height="268.429" rx="4.70929" fill="white"/>
</clipPath>
<clipPath id="clip5_115_328">
<rect x="562.171" y="161.293" width="107.136" height="107.136" rx="5.88661" fill="white"/>
</clipPath>
<clipPath id="clip6_115_328">
<rect x="674.605" y="161.293" width="107.136" height="107.136" rx="5.88661" fill="white"/>
</clipPath>
<clipPath id="clip7_115_328">
<rect x="787.04" y="161.293" width="107.136" height="107.136" rx="5.88661" fill="white"/>
</clipPath>
</defs>
</svg>
