<svg width="1006" height="97" viewBox="0 0 1006 97" fill="none" xmlns="http://www.w3.org/2000/svg">
<rect width="1005.43" height="96.0179" fill="#FFF50F"/>
<path d="M57.0106 67.5183H43.8021L40.4823 58.7597H22.1175L18.8684 67.5183H6.15426L25.0135 20.1936H38.0808L57.0106 67.5183ZM31.2293 34.4617L25.8611 48.871H36.7387L31.2293 34.4617ZM102.976 20.1936L92.0274 37.9227C98.667 38.064 101.987 41.6899 101.987 48.8003V67.5183H90.3322V51.4844C90.3322 49.7421 89.4375 48.871 87.6481 48.871H71.7555V67.5183H60.1009V20.1936H71.7555V37.9227H79.4545L90.1909 20.1936H102.976ZM151.398 20.1936L140.45 37.9227C147.09 38.064 150.41 41.6899 150.41 48.8003V67.5183H138.755V51.4844C138.755 49.7421 137.86 48.871 136.071 48.871H120.178V67.5183H108.524V20.1936H120.178V37.9227H127.877L138.614 20.1936H151.398ZM177.95 45.975L187.344 20.1936H199.281L185.79 56.3582C184.424 59.984 182.753 62.7623 180.775 64.693C178.844 66.5765 176.09 67.5183 172.511 67.5183H159.02V56.3582H170.957L152.663 20.1936H165.659L177.95 45.975ZM226.843 20.1936C231.551 20.1936 235.507 21.7947 238.709 24.9967C241.911 28.1517 243.512 32.1072 243.512 36.8632C243.512 41.7605 241.888 45.7866 238.638 48.9416C235.436 52.0966 231.504 53.6741 226.843 53.6741H214.058V67.5183H202.403V20.1936H226.843ZM214.058 42.6552H225.783C227.431 42.6552 228.82 42.1372 229.95 41.1012C231.081 40.0653 231.646 38.6761 231.646 36.9338C231.646 35.3328 231.057 34.0379 229.88 33.049C228.75 32.013 227.384 31.495 225.783 31.495H214.058V42.6552ZM289.744 67.5183H276.535L273.215 58.7597H254.851L251.601 67.5183H238.887L257.747 20.1936H270.814L289.744 67.5183ZM263.962 34.4617L258.594 48.871H269.472L263.962 34.4617ZM283.186 20.1936H325.496V31.495H310.168V67.5183H298.514V31.495H283.186V20.1936ZM361.307 37.9227V20.1936H372.962V67.5183H361.307V49.1535H341.53V67.5183H329.875V20.1936H341.53V37.9227H361.307ZM420.923 61.5144C416.308 66.2234 410.257 68.5778 402.77 68.5778C395.283 68.5778 389.232 66.2234 384.617 61.5144C380.002 56.7584 377.695 50.9194 377.695 43.9972C377.695 37.028 380.002 31.1419 384.617 26.3388C389.232 21.5357 395.283 19.1341 402.77 19.1341C410.257 19.1341 416.308 21.5357 420.923 26.3388C425.538 31.1419 427.845 37.028 427.845 43.9972C427.845 50.9194 425.538 56.7584 420.923 61.5144ZM402.77 57.1351C406.773 57.1351 409.975 55.8402 412.376 53.2503C414.778 50.6604 415.979 47.5289 415.979 43.856C415.979 40.1359 414.778 37.0045 412.376 34.4617C410.022 31.8718 406.82 30.5768 402.77 30.5768C398.72 30.5768 395.495 31.8718 393.093 34.4617C390.739 37.0045 389.561 40.1359 389.561 43.856C389.561 47.5289 390.739 50.6604 393.093 53.2503C395.495 55.8402 398.72 57.1351 402.77 57.1351ZM471.591 45.975L480.985 20.1936H492.922L479.431 56.3582C478.065 59.984 476.394 62.7623 474.416 64.693C472.485 66.5765 469.73 67.5183 466.152 67.5183H452.661V56.3582H464.598L446.304 20.1936H459.3L471.591 45.975ZM538.778 20.1936V67.5183H527.123V31.4244H507.699V67.5183H496.044V20.1936H538.778ZM592.697 67.5183H579.488L576.168 58.7597H557.804L554.554 67.5183H541.84L560.7 20.1936H573.767L592.697 67.5183ZM566.915 34.4617L561.547 48.871H572.425L566.915 34.4617ZM638.662 20.1936L627.713 37.9227C634.353 38.064 637.673 41.6899 637.673 48.8003V67.5183H626.018V51.4844C626.018 49.7421 625.124 48.871 623.334 48.871H607.441V67.5183H595.787V20.1936H607.441V37.9227H615.141L625.877 20.1936H638.662ZM684.558 61.5144C679.943 66.2234 673.892 68.5778 666.405 68.5778C658.918 68.5778 652.867 66.2234 648.252 61.5144C643.638 56.7584 641.33 50.9194 641.33 43.9972C641.33 37.028 643.638 31.1419 648.252 26.3388C652.867 21.5357 658.918 19.1341 666.405 19.1341C673.892 19.1341 679.943 21.5357 684.558 26.3388C689.173 31.1419 691.48 37.028 691.48 43.9972C691.48 50.9194 689.173 56.7584 684.558 61.5144ZM666.405 57.1351C670.408 57.1351 673.61 55.8402 676.012 53.2503C678.413 50.6604 679.614 47.5289 679.614 43.856C679.614 40.1359 678.413 37.0045 676.012 34.4617C673.657 31.8718 670.455 30.5768 666.405 30.5768C662.356 30.5768 659.13 31.8718 656.728 34.4617C654.374 37.0045 653.197 40.1359 653.197 43.856C653.197 47.5289 654.374 50.6604 656.728 53.2503C659.13 55.8402 662.356 57.1351 666.405 57.1351ZM728.516 42.5846V42.8671C730.776 43.6676 732.636 45.0097 734.096 46.8932C735.555 48.7768 736.285 51.1077 736.285 53.886C736.285 57.8415 734.873 61.1142 732.047 63.7041C729.269 66.2469 725.855 67.5183 721.805 67.5183H695.53V20.1936H720.958C724.96 20.1936 728.304 21.3473 730.988 23.6547C733.672 25.9621 735.014 28.9758 735.014 32.6958C735.014 34.8619 734.425 36.8397 733.248 38.6291C732.071 40.3714 730.493 41.6899 728.516 42.5846ZM718.627 30.5768H707.184V38.9822H718.627C719.945 38.9822 721.005 38.5584 721.805 37.7108C722.653 36.8161 723.077 35.8273 723.077 34.7442C723.077 33.6611 722.677 32.6958 721.876 31.8482C721.076 31.0006 719.993 30.5768 718.627 30.5768ZM707.184 57.2058H719.616C720.981 57.2058 722.112 56.7349 723.006 55.7931C723.901 54.8513 724.348 53.7918 724.348 52.6146C724.348 51.5315 723.901 50.5897 723.006 49.7892C722.112 48.9416 720.981 48.5178 719.616 48.5178H707.184V57.2058ZM752.779 34.2498H763.445C768.154 34.2498 772.109 35.8037 775.311 38.9116C778.513 41.9724 780.114 45.9514 780.114 50.8487C780.114 55.6047 778.513 59.5838 775.311 62.7858C772.109 65.9408 768.154 67.5183 763.445 67.5183H741.124V20.1936H752.779V34.2498ZM783.999 67.5183V20.1936H795.654V67.5183H783.999ZM752.779 56.2169H762.385C764.222 56.2169 765.658 55.6754 766.694 54.5923C767.73 53.5093 768.248 52.2378 768.248 50.7781C768.248 49.3183 767.73 48.0469 766.694 46.9639C765.658 45.8808 764.222 45.3393 762.385 45.3393H752.779V56.2169ZM836.26 42.5846V42.8671C838.52 43.6676 840.38 45.0097 841.84 46.8932C843.3 48.7768 844.03 51.1077 844.03 53.886C844.03 57.8415 842.617 61.1142 839.792 63.7041C837.013 66.2469 833.599 67.5183 829.55 67.5183H803.274V20.1936H828.702C832.705 20.1936 836.048 21.3473 838.732 23.6547C841.416 25.9621 842.758 28.9758 842.758 32.6958C842.758 34.8619 842.17 36.8397 840.992 38.6291C839.815 40.3714 838.238 41.6899 836.26 42.5846ZM826.371 30.5768H814.928V38.9822H826.371C827.69 38.9822 828.749 38.5584 829.55 37.7108C830.397 36.8161 830.821 35.8273 830.821 34.7442C830.821 33.6611 830.421 32.6958 829.62 31.8482C828.82 31.0006 827.737 30.5768 826.371 30.5768ZM814.928 57.2058H827.36C828.726 57.2058 829.856 56.7349 830.75 55.7931C831.645 54.8513 832.092 53.7918 832.092 52.6146C832.092 51.5315 831.645 50.5897 830.75 49.7892C829.856 48.9416 828.726 48.5178 827.36 48.5178H814.928V57.2058ZM895.443 67.5183H882.234L878.914 58.7597H860.55L857.3 67.5183H844.586L863.446 20.1936H876.513L895.443 67.5183ZM869.661 34.4617L864.293 48.871H875.171L869.661 34.4617ZM935.404 67.5183H898.533V20.1936L935.404 20.1936V31.495H910.188V38.2759H931.872V48.871H910.188V56.2169H935.404V67.5183ZM995.965 20.1936V67.5183H984.311V37.4283L972.091 67.5183H965.381L953.161 37.4283V67.5183H941.506V20.1936H957.682L968.771 48.3059L979.931 20.1936H995.965Z" fill="#142B2D"/>
</svg>
