<svg width="1217" height="97" viewBox="0 0 1217 97" fill="none" xmlns="http://www.w3.org/2000/svg">
<rect width="1216.23" height="96.0179" fill="#00DAA6"/>
<path d="M57.0101 67.5183L43.8016 67.5183L40.4818 58.7597L22.117 58.7597L18.8679 67.5183L6.15377 67.5183L25.013 20.1936L38.0803 20.1936L57.0101 67.5183ZM31.2288 34.4617L25.8606 48.871L36.7382 48.871L31.2288 34.4617ZM102.975 20.1936L92.0269 37.9227C98.6665 38.064 101.986 41.6899 101.986 48.8003L101.986 67.5183L90.3317 67.5183L90.3317 51.4844C90.3317 49.7421 89.437 48.871 87.6476 48.871L71.755 48.871L71.755 67.5183L60.1004 67.5183L60.1004 20.1936L71.755 20.1936L71.755 37.9227L79.4541 37.9227L90.1904 20.1936L102.975 20.1936ZM151.398 20.1936L140.45 37.9227C147.089 38.064 150.409 41.6899 150.409 48.8003L150.409 67.5183L138.754 67.5183L138.754 51.4844C138.754 49.7421 137.86 48.871 136.07 48.871L120.178 48.871L120.178 67.5183L108.523 67.5183L108.523 20.1936L120.178 20.1936L120.178 37.9227L127.877 37.9227L138.613 20.1936L151.398 20.1936ZM177.949 45.975L187.343 20.1936L199.281 20.1936L185.789 56.3582C184.424 59.984 182.752 62.7623 180.774 64.693C178.844 66.5765 176.089 67.5183 172.51 67.5183L159.019 67.5183L159.019 56.3582L170.956 56.3582L152.662 20.1936L165.659 20.1936L177.949 45.975ZM226.842 20.1936C231.551 20.1936 235.506 21.7947 238.709 24.9967C241.911 28.1517 243.512 32.1072 243.512 36.8632C243.512 41.7605 241.887 45.7866 238.638 48.9416C235.436 52.0966 231.504 53.6741 226.842 53.6741L214.057 53.6741L214.057 67.5183L202.403 67.5183L202.403 20.1936L226.842 20.1936ZM214.057 42.6552L225.783 42.6552C227.431 42.6552 228.82 42.1372 229.95 41.1012C231.08 40.0653 231.645 38.6762 231.645 36.9338C231.645 35.3328 231.057 34.0379 229.879 33.049C228.749 32.013 227.384 31.495 225.783 31.495L214.057 31.495L214.057 42.6552ZM289.743 67.5183L276.535 67.5183L273.215 58.7597L254.85 58.7597L251.601 67.5183L238.887 67.5183L257.746 20.1936L270.813 20.1936L289.743 67.5183ZM263.962 34.4617L258.594 48.871L269.471 48.871L263.962 34.4617ZM283.186 20.1936L325.496 20.1936L325.496 31.495L310.168 31.495L310.168 67.5183L298.513 67.5183L298.513 31.495L283.186 31.495L283.186 20.1936ZM361.307 37.9227L361.307 20.1936L372.961 20.1936L372.961 67.5183L361.307 67.5183L361.307 49.1535L341.529 49.1535L341.529 67.5183L329.875 67.5183L329.875 20.1936L341.529 20.1936L341.529 37.9227L361.307 37.9227ZM420.922 61.5144C416.308 66.2234 410.257 68.5778 402.769 68.5778C395.282 68.5778 389.231 66.2234 384.617 61.5144C380.002 56.7584 377.694 50.9194 377.694 43.9972C377.694 37.028 380.002 31.1419 384.617 26.3388C389.231 21.5357 395.282 19.1341 402.769 19.1341C410.257 19.1341 416.308 21.5357 420.922 26.3388C425.537 31.1419 427.845 37.028 427.845 43.9972C427.845 50.9194 425.537 56.7584 420.922 61.5144ZM402.769 57.1351C406.772 57.1351 409.974 55.8402 412.376 53.2503C414.777 50.6604 415.978 47.5289 415.978 43.856C415.978 40.1359 414.777 37.0045 412.376 34.4617C410.021 31.8718 406.819 30.5768 402.769 30.5768C398.72 30.5768 395.494 31.8718 393.093 34.4617C390.738 37.0045 389.561 40.1359 389.561 43.856C389.561 47.5289 390.738 50.6604 393.093 53.2503C395.494 55.8402 398.72 57.1351 402.769 57.1351ZM471.59 45.975L480.984 20.1936L492.921 20.1936L479.43 56.3582C478.065 59.984 476.393 62.7623 474.415 64.693C472.485 66.5765 469.73 67.5183 466.151 67.5183L452.66 67.5183L452.66 56.3582L464.597 56.3582L446.303 20.1936L459.3 20.1936L471.59 45.975ZM538.777 20.1936L538.777 67.5183L527.123 67.5183L527.123 31.4244L507.698 31.4244L507.698 67.5183L496.044 67.5183L496.044 20.1936L538.777 20.1936ZM592.696 67.5183L579.488 67.5183L576.168 58.7597L557.803 58.7597L554.554 67.5183L541.84 67.5183L560.699 20.1936L573.766 20.1936L592.696 67.5183ZM566.915 34.4617L561.547 48.871L572.424 48.871L566.915 34.4617ZM638.661 20.1936L627.713 37.9227C634.353 38.064 637.672 41.6899 637.672 48.8003L637.672 67.5183L626.018 67.5183L626.018 51.4844C626.018 49.7421 625.123 48.871 623.334 48.871L607.441 48.871L607.441 67.5183L595.786 67.5183L595.786 20.1936L607.441 20.1936L607.441 37.9227L615.14 37.9227L625.876 20.1936L638.661 20.1936ZM684.558 61.5144C679.943 66.2234 673.892 68.5778 666.405 68.5778C658.918 68.5778 652.867 66.2234 648.252 61.5144C643.637 56.7584 641.33 50.9194 641.33 43.9972C641.33 37.028 643.637 31.1419 648.252 26.3388C652.867 21.5357 658.918 19.1341 666.405 19.1341C673.892 19.1341 679.943 21.5357 684.558 26.3388C689.172 31.1419 691.48 37.028 691.48 43.9972C691.48 50.9194 689.172 56.7584 684.558 61.5144ZM666.405 57.1351C670.407 57.1351 673.609 55.8402 676.011 53.2503C678.413 50.6604 679.613 47.5289 679.613 43.856C679.613 40.1359 678.413 37.0045 676.011 34.4617C673.657 31.8718 670.454 30.5768 666.405 30.5768C662.355 30.5768 659.13 31.8718 656.728 34.4617C654.374 37.0045 653.196 40.1359 653.196 43.856C653.196 47.5289 654.374 50.6604 656.728 53.2503C659.13 55.8402 662.355 57.1351 666.405 57.1351ZM728.515 42.5846L728.515 42.8671C730.775 43.6676 732.635 45.0097 734.095 46.8932C735.555 48.7768 736.285 51.1077 736.285 53.886C736.285 57.8415 734.872 61.1142 732.047 63.7041C729.269 66.2469 725.855 67.5183 721.805 67.5183L695.529 67.5183L695.529 20.1936L720.957 20.1936C724.96 20.1936 728.303 21.3473 730.987 23.6547C733.671 25.9621 735.013 28.9758 735.013 32.6958C735.013 34.8619 734.425 36.8397 733.248 38.6291C732.07 40.3714 730.493 41.6899 728.515 42.5846ZM718.626 30.5768L707.184 30.5768L707.184 38.9822L718.626 38.9822C719.945 38.9822 721.004 38.5584 721.805 37.7108C722.653 36.8161 723.076 35.8273 723.076 34.7442C723.076 33.6612 722.676 32.6958 721.876 31.8482C721.075 31.0006 719.992 30.5768 718.626 30.5768ZM707.184 57.2058L719.615 57.2058C720.981 57.2058 722.111 56.7349 723.006 55.7931C723.9 54.8513 724.348 53.7918 724.348 52.6146C724.348 51.5315 723.9 50.5897 723.006 49.7892C722.111 48.9416 720.981 48.5178 719.615 48.5178L707.184 48.5178L707.184 57.2058ZM752.778 34.2498L763.444 34.2498C768.153 34.2498 772.109 35.8037 775.311 38.9116C778.513 41.9724 780.114 45.9514 780.114 50.8487C780.114 55.6047 778.513 59.5838 775.311 62.7858C772.109 65.9408 768.153 67.5183 763.444 67.5183L741.124 67.5183L741.124 20.1936L752.778 20.1936L752.778 34.2498ZM783.999 67.5183L783.999 20.1936L795.653 20.1936L795.653 67.5183L783.999 67.5183ZM752.778 56.2169L762.385 56.2169C764.221 56.2169 765.657 55.6754 766.693 54.5923C767.729 53.5093 768.247 52.2379 768.247 50.7781C768.247 49.3183 767.729 48.0469 766.693 46.9639C765.657 45.8808 764.221 45.3393 762.385 45.3393L752.778 45.3393L752.778 56.2169ZM836.259 42.5846L836.259 42.8671C838.52 43.6676 840.38 45.0097 841.839 46.8932C843.299 48.7768 844.029 51.1077 844.029 53.886C844.029 57.8415 842.616 61.1142 839.791 63.7041C837.013 66.2469 833.599 67.5183 829.549 67.5183L803.273 67.5183L803.273 20.1936L828.702 20.1936C832.704 20.1936 836.047 21.3473 838.732 23.6547C841.416 25.9621 842.758 28.9758 842.758 32.6958C842.758 34.8619 842.169 36.8397 840.992 38.6291C839.815 40.3714 838.237 41.6899 836.259 42.5846ZM826.371 30.5768L814.928 30.5768L814.928 38.9822L826.371 38.9822C827.689 38.9822 828.749 38.5584 829.549 37.7108C830.397 36.8161 830.821 35.8273 830.821 34.7442C830.821 33.6612 830.42 32.6958 829.62 31.8482C828.819 31.0006 827.736 30.5768 826.371 30.5768ZM814.928 57.2058L827.359 57.2058C828.725 57.2058 829.855 56.7349 830.75 55.7931C831.645 54.8513 832.092 53.7918 832.092 52.6146C832.092 51.5315 831.645 50.5897 830.75 49.7892C829.855 48.9416 828.725 48.5178 827.359 48.5178L814.928 48.5178L814.928 57.2058ZM895.442 67.5183L882.234 67.5183L878.914 58.7597L860.549 58.7597L857.3 67.5183L844.586 67.5183L863.445 20.1936L876.512 20.1936L895.442 67.5183ZM869.661 34.4617L864.293 48.871L875.17 48.871L869.661 34.4617ZM935.403 67.5183L898.532 67.5183L898.532 20.1936L935.403 20.1936L935.403 31.4951L910.187 31.4951L910.187 38.2759L931.872 38.2759L931.872 48.871L910.187 48.871L910.187 56.2169L935.403 56.2169L935.403 67.5183ZM995.965 20.1936L995.965 67.5183L984.31 67.5183L984.31 37.4283L972.09 67.5183L965.38 67.5183L953.161 37.4283L953.161 67.5183L941.506 67.5183L941.506 20.1936L957.681 20.1936L968.771 48.3059L979.931 20.1936L995.965 20.1936ZM1067.54 67.5183L1054.33 67.5183L1051.01 58.7597L1032.65 58.7597L1029.4 67.5183L1016.69 67.5183L1035.55 20.1936L1048.61 20.1936L1067.54 67.5183ZM1041.76 34.4617L1036.39 48.871L1047.27 48.871L1041.76 34.4617ZM1113.51 20.1936L1102.56 37.9227C1109.2 38.064 1112.52 41.6899 1112.52 48.8003L1112.52 67.5183L1100.86 67.5183L1100.86 51.4844C1100.86 49.7421 1099.97 48.871 1098.18 48.871L1082.29 48.871L1082.29 67.5183L1070.63 67.5183L1070.63 20.1936L1082.29 20.1936L1082.29 37.9227L1089.99 37.9227L1100.72 20.1936L1113.51 20.1936ZM1161.93 20.1936L1150.98 37.9227C1157.62 38.064 1160.94 41.6899 1160.94 48.8004L1160.94 67.5183L1149.29 67.5183L1149.29 51.4844C1149.29 49.7421 1148.39 48.871 1146.6 48.871L1130.71 48.871L1130.71 67.5183L1119.06 67.5183L1119.06 20.1936L1130.71 20.1936L1130.71 37.9227L1138.41 37.9227L1149.15 20.1936L1161.93 20.1936ZM1188.48 45.975L1197.88 20.1936L1209.81 20.1936L1196.32 56.3582C1194.96 59.984 1193.29 62.7623 1191.31 64.693C1189.38 66.5765 1186.62 67.5183 1183.04 67.5183L1169.55 67.5183L1169.55 56.3582L1181.49 56.3582L1163.2 20.1936L1176.19 20.1936L1188.48 45.975Z" fill="white"/>
</svg>
