<svg width="1054" height="97" viewBox="0 0 1054 97" fill="none" xmlns="http://www.w3.org/2000/svg">
<rect width="1053.99" height="96.0179" transform="translate(0 0.982056)" fill="#FFF50F"/>
<path d="M57.0101 68.5002H43.8016L40.4818 59.7416H22.117L18.8679 68.5002H6.15377L25.013 21.1756H38.0803L57.0101 68.5002ZM31.2288 35.4436L25.8606 49.8529H36.7382L31.2288 35.4436ZM102.975 21.1756L92.0269 38.9047C98.6665 39.0459 101.986 42.6718 101.986 49.7823V68.5002H90.3317V52.4664C90.3317 50.7241 89.437 49.8529 87.6476 49.8529H71.755V68.5002H60.1004V21.1756H71.755V38.9047H79.4541L90.1904 21.1756H102.975ZM151.398 21.1756L140.45 38.9047C147.089 39.0459 150.409 42.6718 150.409 49.7823V68.5002H138.754V52.4664C138.754 50.7241 137.86 49.8529 136.07 49.8529H120.178V68.5002H108.523V21.1756H120.178V38.9047H127.877L138.613 21.1756H151.398ZM177.949 46.9569L187.343 21.1756H199.281L185.789 57.3401C184.424 60.966 182.752 63.7442 180.774 65.6749C178.844 67.5585 176.089 68.5002 172.51 68.5002H159.019V57.3401H170.956L152.662 21.1756H165.659L177.949 46.9569ZM226.842 21.1756C231.551 21.1756 235.506 22.7766 238.709 25.9787C241.911 29.1336 243.512 33.0891 243.512 37.8451C243.512 42.7424 241.887 46.7686 238.638 49.9235C235.436 53.0785 231.504 54.656 226.842 54.656H214.057V68.5002H202.403V21.1756H226.842ZM214.057 43.6371H225.783C227.431 43.6371 228.82 43.1191 229.95 42.0832C231.08 41.0472 231.645 39.6581 231.645 37.9158C231.645 36.3147 231.057 35.0198 229.879 34.0309C228.749 32.995 227.384 32.477 225.783 32.477H214.057V43.6371ZM289.743 68.5002H276.535L273.215 59.7416H254.85L251.601 68.5002H238.887L257.746 21.1756H270.813L289.743 68.5002ZM263.962 35.4436L258.594 49.8529H269.471L263.962 35.4436ZM283.186 21.1756H325.496V32.477H310.168V68.5002H298.513V32.477H283.186V21.1756ZM361.307 38.9047V21.1756H372.961V68.5002H361.307V50.1354H341.529V68.5002H329.875V21.1756H341.529V38.9047H361.307ZM420.922 62.4964C416.308 67.2053 410.257 69.5597 402.769 69.5597C395.282 69.5597 389.231 67.2053 384.617 62.4964C380.002 57.7403 377.694 51.9013 377.694 44.9792C377.694 38.01 380.002 32.1238 384.617 27.3207C389.231 22.5176 395.282 20.116 402.769 20.116C410.257 20.116 416.308 22.5176 420.922 27.3207C425.537 32.1238 427.845 38.01 427.845 44.9792C427.845 51.9013 425.537 57.7403 420.922 62.4964ZM402.769 58.1171C406.772 58.1171 409.974 56.8221 412.376 54.2322C414.777 51.6423 415.978 48.5109 415.978 44.8379C415.978 41.1178 414.777 37.9864 412.376 35.4436C410.021 32.8537 406.819 31.5587 402.769 31.5587C398.72 31.5587 395.494 32.8537 393.093 35.4436C390.738 37.9864 389.561 41.1178 389.561 44.8379C389.561 48.5109 390.738 51.6423 393.093 54.2322C395.494 56.8221 398.72 58.1171 402.769 58.1171ZM471.59 46.9569L480.984 21.1756H492.921L479.43 57.3401C478.065 60.966 476.393 63.7442 474.415 65.6749C472.485 67.5585 469.73 68.5002 466.151 68.5002H452.66V57.3401H464.597L446.303 21.1756H459.3L471.59 46.9569ZM538.777 21.1756V68.5002H527.123V32.4063H507.698V68.5002H496.044V21.1756H538.777ZM592.696 68.5002H579.488L576.168 59.7416H557.803L554.554 68.5002H541.84L560.699 21.1756H573.766L592.696 68.5002ZM566.915 35.4436L561.547 49.8529H572.424L566.915 35.4436ZM638.661 21.1756L627.713 38.9047C634.353 39.0459 637.672 42.6718 637.672 49.7823V68.5002H626.018V52.4664C626.018 50.7241 625.123 49.8529 623.334 49.8529H607.441V68.5002H595.786V21.1756H607.441V38.9047H615.14L625.876 21.1756H638.661ZM684.558 62.4964C679.943 67.2053 673.892 69.5597 666.405 69.5597C658.918 69.5597 652.867 67.2053 648.252 62.4964C643.637 57.7403 641.33 51.9013 641.33 44.9792C641.33 38.01 643.637 32.1238 648.252 27.3207C652.867 22.5176 658.918 20.116 666.405 20.116C673.892 20.116 679.943 22.5176 684.558 27.3207C689.172 32.1238 691.48 38.01 691.48 44.9792C691.48 51.9013 689.172 57.7403 684.558 62.4964ZM666.405 58.1171C670.407 58.1171 673.609 56.8221 676.011 54.2322C678.413 51.6423 679.613 48.5109 679.613 44.8379C679.613 41.1178 678.413 37.9864 676.011 35.4436C673.657 32.8537 670.454 31.5587 666.405 31.5587C662.355 31.5587 659.13 32.8537 656.728 35.4436C654.374 37.9864 653.196 41.1178 653.196 44.8379C653.196 48.5109 654.374 51.6423 656.728 54.2322C659.13 56.8221 662.355 58.1171 666.405 58.1171ZM728.515 43.5665V43.849C730.775 44.6495 732.635 45.9916 734.095 47.8752C735.555 49.7587 736.285 52.0896 736.285 54.8679C736.285 58.8234 734.872 62.0961 732.047 64.686C729.269 67.2288 725.855 68.5002 721.805 68.5002H695.529V21.1756H720.957C724.96 21.1756 728.303 22.3292 730.987 24.6366C733.671 26.944 735.013 29.9577 735.013 33.6777C735.013 35.8439 734.425 37.8216 733.248 39.611C732.07 41.3533 730.493 42.6718 728.515 43.5665ZM718.626 31.5587H707.184V39.9642H718.626C719.945 39.9642 721.004 39.5404 721.805 38.6928C722.653 37.7981 723.076 36.8092 723.076 35.7261C723.076 34.6431 722.676 33.6777 721.876 32.8301C721.075 31.9825 719.992 31.5587 718.626 31.5587ZM707.184 58.1877H719.615C720.981 58.1877 722.111 57.7168 723.006 56.775C723.9 55.8332 724.348 54.7737 724.348 53.5965C724.348 52.5134 723.9 51.5717 723.006 50.7711C722.111 49.9235 720.981 49.4997 719.615 49.4997H707.184V58.1877ZM752.778 35.2317H763.444C768.153 35.2317 772.109 36.7856 775.311 39.8935C778.513 42.9543 780.114 46.9334 780.114 51.8306C780.114 56.5867 778.513 60.5657 775.311 63.7678C772.109 66.9228 768.153 68.5002 763.444 68.5002H741.124V21.1756H752.778V35.2317ZM783.999 68.5002V21.1756H795.653V68.5002H783.999ZM752.778 57.1988H762.385C764.221 57.1988 765.657 56.6573 766.693 55.5742C767.729 54.4912 768.247 53.2198 768.247 51.76C768.247 50.3003 767.729 49.0288 766.693 47.9458C765.657 46.8627 764.221 46.3212 762.385 46.3212H752.778V57.1988ZM836.259 43.5665V43.849C838.52 44.6495 840.38 45.9916 841.839 47.8752C843.299 49.7587 844.029 52.0896 844.029 54.8679C844.029 58.8234 842.616 62.0961 839.791 64.686C837.013 67.2288 833.599 68.5002 829.549 68.5002H803.273V21.1756H828.702C832.704 21.1756 836.047 22.3292 838.732 24.6366C841.416 26.944 842.758 29.9577 842.758 33.6777C842.758 35.8439 842.169 37.8216 840.992 39.611C839.815 41.3533 838.237 42.6718 836.259 43.5665ZM826.371 31.5587H814.928V39.9642H826.371C827.689 39.9642 828.749 39.5404 829.549 38.6928C830.397 37.7981 830.821 36.8092 830.821 35.7261C830.821 34.6431 830.42 33.6777 829.62 32.8301C828.819 31.9825 827.736 31.5587 826.371 31.5587ZM814.928 58.1877H827.359C828.725 58.1877 829.855 57.7168 830.75 56.775C831.645 55.8332 832.092 54.7737 832.092 53.5965C832.092 52.5134 831.645 51.5717 830.75 50.7711C829.855 49.9235 828.725 49.4997 827.359 49.4997H814.928V58.1877ZM895.442 68.5002H882.234L878.914 59.7416H860.549L857.3 68.5002H844.586L863.445 21.1756H876.512L895.442 68.5002ZM869.661 35.4436L864.293 49.8529H875.17L869.661 35.4436ZM935.403 68.5002H898.532V21.1756L935.403 21.1756V32.477H910.187V39.2578H931.872V49.8529H910.187V57.1988H935.403V68.5002ZM995.965 21.1756V68.5002H984.31V38.4102L972.09 68.5002H965.38L953.161 38.4102V68.5002H941.506V21.1756H957.681L968.771 49.2878L979.931 21.1756H995.965Z" fill="#142B2D"/>
</svg>
