<svg width="1210" height="97" viewBox="0 0 1210 97" fill="none" xmlns="http://www.w3.org/2000/svg">
<rect width="1167.67" height="96.0179" transform="translate(0 0.667725)" fill="#FF0000"/>
<path d="M57.0101 68.186L43.8016 68.186L40.4818 59.4274L22.117 59.4274L18.8679 68.186L6.15377 68.186L25.013 20.8613L38.0803 20.8613L57.0101 68.186ZM31.2288 35.1294L25.8606 49.5387L36.7382 49.5387L31.2288 35.1294ZM102.975 20.8613L92.0269 38.5904C98.6665 38.7317 101.986 42.3576 101.986 49.4681L101.986 68.186L90.3317 68.186L90.3317 52.1521C90.3317 50.4098 89.437 49.5387 87.6476 49.5387L71.755 49.5387L71.755 68.186L60.1004 68.186L60.1004 20.8613L71.755 20.8613L71.755 38.5904L79.4541 38.5904L90.1904 20.8613L102.975 20.8613ZM151.398 20.8613L140.45 38.5904C147.089 38.7317 150.409 42.3576 150.409 49.4681L150.409 68.186L138.754 68.186L138.754 52.1521C138.754 50.4098 137.86 49.5387 136.07 49.5387L120.178 49.5387L120.178 68.186L108.523 68.186L108.523 20.8613L120.178 20.8613L120.178 38.5904L127.877 38.5904L138.613 20.8613L151.398 20.8613ZM177.949 46.6427L187.343 20.8613L199.281 20.8613L185.789 57.0259C184.424 60.6518 182.752 63.43 180.774 65.3607C178.844 67.2442 176.089 68.186 172.51 68.186L159.019 68.186L159.019 57.0259L170.956 57.0259L152.662 20.8613L165.659 20.8613L177.949 46.6427ZM226.842 20.8613C231.551 20.8613 235.506 22.4624 238.709 25.6644C241.911 28.8194 243.512 32.7749 243.512 37.5309C243.512 42.4282 241.887 46.4543 238.638 49.6093C235.436 52.7643 231.504 54.3418 226.842 54.3418L214.057 54.3418L214.057 68.186L202.403 68.186L202.403 20.8613L226.842 20.8613ZM214.057 43.3229L225.783 43.3229C227.431 43.3229 228.82 42.8049 229.95 41.769C231.08 40.733 231.645 39.3439 231.645 37.6016C231.645 36.0005 231.057 34.7056 229.879 33.7167C228.749 32.6807 227.384 32.1628 225.783 32.1628L214.057 32.1628L214.057 43.3229ZM289.743 68.186L276.535 68.186L273.215 59.4274L254.85 59.4274L251.601 68.186L238.887 68.186L257.746 20.8613L270.813 20.8613L289.743 68.186ZM263.962 35.1294L258.594 49.5387L269.471 49.5387L263.962 35.1294ZM283.186 20.8613L325.496 20.8613L325.496 32.1628L310.168 32.1628L310.168 68.186L298.513 68.186L298.513 32.1628L283.186 32.1628L283.186 20.8613ZM361.307 38.5904L361.307 20.8613L372.961 20.8613L372.961 68.186L361.307 68.186L361.307 49.8212L341.529 49.8212L341.529 68.186L329.875 68.186L329.875 20.8613L341.529 20.8613L341.529 38.5904L361.307 38.5904ZM420.922 62.1822C416.308 66.8911 410.257 69.2455 402.769 69.2455C395.282 69.2455 389.231 66.8911 384.617 62.1822C380.002 57.4261 377.694 51.5871 377.694 44.665C377.694 37.6957 380.002 31.8096 384.617 27.0065C389.231 22.2034 395.282 19.8018 402.769 19.8018C410.257 19.8018 416.308 22.2034 420.922 27.0065C425.537 31.8096 427.845 37.6957 427.845 44.665C427.845 51.5871 425.537 57.4261 420.922 62.1822ZM402.769 57.8029C406.772 57.8029 409.974 56.5079 412.376 53.918C414.777 51.3281 415.978 48.1966 415.978 44.5237C415.978 40.8036 414.777 37.6722 412.376 35.1294C410.021 32.5395 406.819 31.2445 402.769 31.2445C398.72 31.2445 395.494 32.5395 393.093 35.1294C390.738 37.6722 389.561 40.8036 389.561 44.5237C389.561 48.1966 390.738 51.3281 393.093 53.918C395.494 56.5079 398.72 57.8029 402.769 57.8029ZM471.59 46.6427L480.984 20.8613L492.921 20.8613L479.43 57.0259C478.065 60.6517 476.393 63.43 474.415 65.3607C472.485 67.2442 469.73 68.186 466.151 68.186L452.66 68.186L452.66 57.0259L464.597 57.0259L446.303 20.8613L459.3 20.8613L471.59 46.6427ZM538.777 20.8613L538.777 68.186L527.123 68.186L527.123 32.0921L507.698 32.0921L507.698 68.186L496.044 68.186L496.044 20.8613L538.777 20.8613ZM592.696 68.186L579.488 68.186L576.168 59.4274L557.803 59.4274L554.554 68.186L541.84 68.186L560.699 20.8613L573.766 20.8613L592.696 68.186ZM566.915 35.1294L561.547 49.5387L572.424 49.5387L566.915 35.1294ZM638.661 20.8613L627.713 38.5904C634.353 38.7317 637.672 42.3576 637.672 49.4681L637.672 68.186L626.018 68.186L626.018 52.1521C626.018 50.4098 625.123 49.5387 623.334 49.5387L607.441 49.5387L607.441 68.186L595.786 68.186L595.786 20.8613L607.441 20.8613L607.441 38.5904L615.14 38.5904L625.876 20.8613L638.661 20.8613ZM684.558 62.1821C679.943 66.8911 673.892 69.2455 666.405 69.2455C658.918 69.2455 652.867 66.8911 648.252 62.1821C643.637 57.4261 641.33 51.5871 641.33 44.665C641.33 37.6957 643.637 31.8096 648.252 27.0065C652.867 22.2034 658.918 19.8018 666.405 19.8018C673.892 19.8018 679.943 22.2034 684.558 27.0065C689.172 31.8096 691.48 37.6957 691.48 44.665C691.48 51.5871 689.172 57.4261 684.558 62.1821ZM666.405 57.8028C670.407 57.8028 673.609 56.5079 676.011 53.918C678.413 51.3281 679.613 48.1966 679.613 44.5237C679.613 40.8036 678.413 37.6722 676.011 35.1294C673.657 32.5395 670.454 31.2445 666.405 31.2445C662.355 31.2445 659.13 32.5395 656.728 35.1294C654.374 37.6722 653.196 40.8036 653.196 44.5237C653.196 48.1966 654.374 51.3281 656.728 53.918C659.13 56.5079 662.355 57.8028 666.405 57.8028ZM728.515 43.2523L728.515 43.5348C730.775 44.3353 732.635 45.6774 734.095 47.5609C735.555 49.4445 736.285 51.7754 736.285 54.5537C736.285 58.5092 734.872 61.7819 732.047 64.3718C729.269 66.9146 725.855 68.186 721.805 68.186L695.529 68.186L695.529 20.8613L720.957 20.8613C724.96 20.8613 728.303 22.015 730.987 24.3224C733.671 26.6298 735.013 29.6435 735.013 33.3635C735.013 35.5296 734.425 37.5074 733.248 39.2968C732.07 41.0391 730.493 42.3576 728.515 43.2523ZM718.626 31.2445L707.184 31.2445L707.184 39.6499L718.626 39.6499C719.945 39.6499 721.004 39.2261 721.805 38.3785C722.653 37.4838 723.076 36.495 723.076 35.4119C723.076 34.3289 722.676 33.3635 721.876 32.5159C721.075 31.6683 719.992 31.2445 718.626 31.2445ZM707.184 57.8735L719.615 57.8735C720.981 57.8735 722.111 57.4026 723.006 56.4608C723.9 55.519 724.348 54.4595 724.348 53.2823C724.348 52.1992 723.9 51.2574 723.006 50.4569C722.111 49.6093 720.981 49.1855 719.615 49.1855L707.184 49.1855L707.184 57.8735ZM752.778 34.9175L763.444 34.9175C768.153 34.9175 772.109 36.4714 775.311 39.5793C778.513 42.6401 780.114 46.6192 780.114 51.5164C780.114 56.2724 778.513 60.2515 775.311 63.4536C772.109 66.6085 768.153 68.186 763.444 68.186L741.124 68.186L741.124 20.8613L752.778 20.8613L752.778 34.9175ZM783.999 68.186L783.999 20.8613L795.653 20.8613L795.653 68.186L783.999 68.186ZM752.778 56.8846L762.385 56.8846C764.221 56.8846 765.657 56.3431 766.693 55.26C767.729 54.177 768.247 52.9056 768.247 51.4458C768.247 49.986 767.729 48.7146 766.693 47.6316C765.657 46.5485 764.221 46.007 762.385 46.007L752.778 46.007L752.778 56.8846ZM836.259 43.2523L836.259 43.5348C838.52 44.3353 840.38 45.6774 841.839 47.5609C843.299 49.4445 844.029 51.7754 844.029 54.5537C844.029 58.5092 842.616 61.7819 839.791 64.3718C837.013 66.9146 833.599 68.186 829.549 68.186L803.273 68.186L803.273 20.8613L828.702 20.8613C832.704 20.8613 836.047 22.015 838.732 24.3224C841.416 26.6298 842.758 29.6435 842.758 33.3635C842.758 35.5296 842.169 37.5074 840.992 39.2968C839.815 41.0391 838.237 42.3576 836.259 43.2523ZM826.371 31.2445L814.928 31.2445L814.928 39.6499L826.371 39.6499C827.689 39.6499 828.749 39.2261 829.549 38.3785C830.397 37.4838 830.821 36.495 830.821 35.4119C830.821 34.3289 830.42 33.3635 829.62 32.5159C828.819 31.6683 827.736 31.2445 826.371 31.2445ZM814.928 57.8735L827.359 57.8735C828.725 57.8735 829.855 57.4026 830.75 56.4608C831.645 55.519 832.092 54.4595 832.092 53.2823C832.092 52.1992 831.645 51.2574 830.75 50.4569C829.855 49.6093 828.725 49.1855 827.359 49.1855L814.928 49.1855L814.928 57.8735ZM895.442 68.186L882.234 68.186L878.914 59.4274L860.549 59.4274L857.3 68.186L844.586 68.186L863.445 20.8613L876.512 20.8613L895.442 68.186ZM869.661 35.1294L864.293 49.5387L875.17 49.5387L869.661 35.1294ZM935.403 68.186L898.532 68.186L898.532 20.8613L935.403 20.8613L935.403 32.1628L910.187 32.1628L910.187 38.9436L931.872 38.9436L931.872 49.5387L910.187 49.5387L910.187 56.8846L935.403 56.8846L935.403 68.186ZM995.965 20.8613L995.965 68.186L984.31 68.186L984.31 38.096L972.09 68.186L965.38 68.186L953.161 38.096L953.161 68.186L941.506 68.186L941.506 20.8613L957.681 20.8613L968.771 48.9736L979.931 20.8613L995.965 20.8613ZM1067.54 68.186L1054.33 68.186L1051.01 59.4274L1032.65 59.4274L1029.4 68.186L1016.69 68.186L1035.55 20.8613L1048.61 20.8613L1067.54 68.186ZM1041.76 35.1294L1036.39 49.5387L1047.27 49.5387L1041.76 35.1294ZM1113.51 20.8613L1102.56 38.5904C1109.2 38.7317 1112.52 42.3576 1112.52 49.468L1112.52 68.186L1100.86 68.186L1100.86 52.1521C1100.86 50.4098 1099.97 49.5387 1098.18 49.5387L1082.29 49.5387L1082.29 68.186L1070.63 68.186L1070.63 20.8613L1082.29 20.8613L1082.29 38.5904L1089.99 38.5904L1100.72 20.8613L1113.51 20.8613ZM1161.93 20.8613L1150.98 38.5904C1157.62 38.7317 1160.94 42.3576 1160.94 49.468L1160.94 68.186L1149.29 68.186L1149.29 52.1521C1149.29 50.4098 1148.39 49.5387 1146.6 49.5387L1130.71 49.5387L1130.71 68.186L1119.06 68.186L1119.06 20.8613L1130.71 20.8613L1130.71 38.5904L1138.41 38.5904L1149.15 20.8613L1161.93 20.8613ZM1188.48 46.6427L1197.88 20.8613L1209.81 20.8613L1196.32 57.0259C1194.96 60.6517 1193.29 63.43 1191.31 65.3607C1189.38 67.2442 1186.62 68.186 1183.04 68.186L1169.55 68.186L1169.55 57.0259L1181.49 57.0259L1163.2 20.8613L1176.19 20.8613L1188.48 46.6427Z" fill="white"/>
</svg>
