<svg width="507" height="510" viewBox="0 0 507 510" fill="none" xmlns="http://www.w3.org/2000/svg">
<path d="M294.555 98.9752C281.69 86.0433 266.417 75.7851 249.608 68.7864C232.799 61.7877 214.784 58.1855 196.59 58.1855C178.396 58.1855 160.38 61.7877 143.571 68.7864C126.762 75.7851 111.489 86.0433 98.6239 98.9752C85.7589 111.907 75.5538 127.26 68.5913 144.156C61.6288 161.052 58.0452 179.162 58.0452 197.45C58.0452 215.739 61.6288 233.848 68.5913 250.745C75.5538 267.641 85.7589 282.994 98.6239 295.926L196.59 197.45L294.555 98.9752Z" fill="#FF0000"/>
<line y1="-5" x2="263.928" y2="-5" transform="matrix(0.965243 0.252542 -0.251235 0.970263 98.624 295.926)" stroke="#FF0000" stroke-width="10"/>
<line y1="-5" x2="263.935" y2="-5" transform="matrix(-0.258147 -0.968428 0.963417 -0.25949 362.689 354.577)" stroke="#FF0000" stroke-width="10"/>
<line y1="-5" x2="263.935" y2="-5" transform="matrix(-0.70527 -0.708938 0.70527 -0.708938 360.092 355.83)" stroke="#FF0000" stroke-width="10"/>
<rect width="142.039" height="86.6383" transform="matrix(0.70527 -0.708938 0.70527 0.708938 297.567 399.648)" fill="#FF0000"/>
</svg>
