<svg width="256" height="290" viewBox="0 0 256 290" fill="none" xmlns="http://www.w3.org/2000/svg">
<path d="M172.134 67.2233C167.093 58.4452 160.38 50.7513 152.38 44.5808C144.38 38.4103 135.25 33.8842 125.51 31.2608C115.77 28.6374 105.611 27.9681 95.6134 29.2911C85.616 30.6141 75.9758 33.9035 67.2431 38.9716C58.5104 44.0396 50.8562 50.787 44.7177 58.8285C38.5792 66.8701 34.0764 76.0482 31.4666 85.8389C28.8568 95.6296 28.1909 105.841 29.5071 115.891C30.8233 125.94 34.0957 135.63 39.1375 144.408L105.636 105.816L172.134 67.2233Z" fill="#AD98FF"/>
<line y1="-5" x2="146.37" y2="-5" transform="matrix(0.866781 0.494746 -0.49281 0.872391 39.1375 144.408)" stroke="#AD98FF" stroke-width="10"/>
<line x1="167.144" y1="213.883" x2="167.144" y2="67.2234" stroke="#AD98FF" stroke-width="10"/>
<line y1="-5" x2="146.471" y2="-5" transform="matrix(-0.498056 -0.867145 0.864899 -0.501946 170.565 214.18)" stroke="#AD98FF" stroke-width="10"/>
<rect width="78.6203" height="48.08" transform="matrix(0.864899 -0.501946 0.498056 0.867145 130.839 228.622)" fill="#AD98FF"/>
</svg>
