<svg width="382" height="499" viewBox="0 0 382 499" fill="none" xmlns="http://www.w3.org/2000/svg">
<path d="M345.75 207.059C350.459 189.394 351.661 170.969 349.286 152.837C346.911 134.705 341.007 117.22 331.91 101.382C322.813 85.5437 310.701 71.6615 296.267 60.5282C281.833 49.3948 265.359 41.2283 247.785 36.4949C230.211 31.7614 211.881 30.5538 193.843 32.941C175.805 35.3281 158.411 41.2632 142.654 50.4075C126.898 59.5518 113.088 71.7261 102.012 86.2354C90.9362 100.745 82.8119 117.305 78.103 134.97L211.927 171.014L345.75 207.059Z" fill="#FFF50F"/>
<line y1="-5" x2="264.217" y2="-5" transform="matrix(0.264756 0.965486 -0.962597 0.266716 78.103 134.97)" stroke="#FFF50F" stroke-width="10"/>
<line y1="-5" x2="264.231" y2="-5" transform="matrix(0.70448 -0.708143 0.706064 0.709736 159.605 394.172)" stroke="#FFF50F" stroke-width="10"/>
<line y1="-5" x2="264.527" y2="-5" transform="matrix(0.257569 -0.96626 0.965589 0.260074 157.227 392.538)" stroke="#FFF50F" stroke-width="10"/>
<rect width="141.719" height="86.8327" transform="matrix(0.965589 0.260074 -0.257569 0.96626 88.2126 360.017)" fill="#FFF50F"/>
</svg>
