<svg width="79" height="80" viewBox="0 0 79 80" fill="none" xmlns="http://www.w3.org/2000/svg">
<g clip-path="url(#clip0_155_319)">
<path d="M34.6439 45.2226C26.9083 44.8931 20.3257 38.4753 20.161 30.7397C20.161 29.7514 19.3374 29.0925 18.5138 29.0925C17.6902 29.0925 16.8666 29.9161 16.8666 30.7397C17.0313 34.3604 15.7136 37.8164 13.0812 40.4488C10.6135 42.9165 6.99276 44.2343 3.37205 44.2343C2.54845 44.2343 1.72485 44.8931 1.72485 45.8815C1.72485 46.7051 2.38373 47.5287 3.37205 47.5287C11.1076 47.6934 17.6902 54.2759 17.8549 62.0115C17.8549 62.8351 18.6785 63.6587 19.5021 63.6587C20.3257 63.6587 21.1493 62.8351 21.1493 62.0115C20.9846 58.3908 22.3023 54.9348 24.9347 52.3024C27.4024 49.8347 30.8584 48.3523 34.6439 48.517C35.4674 48.517 36.291 47.8581 36.291 46.8698C36.291 46.0462 35.6322 45.2226 34.6439 45.2226ZM22.4671 49.9963C21.1493 51.3141 19.9994 52.9582 19.1758 54.7701C17.3639 50.9847 14.2373 48.0228 10.6166 46.2109C12.4285 45.3873 13.9079 44.399 15.3903 42.9196C16.8728 41.4372 17.858 39.9578 18.6816 38.1459C20.4935 41.9313 23.6201 44.8932 27.2408 46.7051C25.5936 47.5287 23.9464 48.5139 22.4671 49.9963Z" fill="white"/>
<path d="M75.628 60.8586C67.8924 60.6939 61.3098 54.1113 61.1451 46.3757C61.1451 45.3874 60.3215 44.7285 59.4979 44.7285C58.6743 44.7285 57.8507 45.5521 57.8507 46.3757C58.0154 49.9964 56.6977 53.4524 54.0653 56.0848C51.5976 58.5525 47.9769 59.8703 44.3562 59.8703C43.5326 59.8703 42.709 60.5291 42.709 61.5175C42.709 62.3411 43.3679 63.1646 44.3562 63.1646C52.0918 63.4941 58.5096 69.9119 58.839 77.4828V77.6475C58.839 78.3064 59.1685 78.8005 59.8274 79.13C59.9921 79.2947 60.3215 79.2947 60.4862 79.2947C61.4746 79.2947 62.1334 78.4711 62.1334 77.6475C61.9687 74.0268 63.2865 70.5708 65.9189 67.9384C68.3865 65.4707 71.8425 63.9882 75.628 64.153C76.6163 64.153 77.2752 63.4941 77.2752 62.5058C77.1073 61.6822 76.4485 60.8586 75.628 60.8586ZM63.4481 65.6323C62.1303 66.9501 60.9804 68.5942 60.1568 70.4061C58.3449 66.6206 55.2183 63.6588 51.5976 61.8469C53.4095 61.0233 54.8889 60.035 56.3714 58.5556C57.8538 57.0731 58.839 55.5938 59.6626 53.7819C61.4746 57.5673 64.6011 60.5291 68.2218 62.341C66.4099 63.1615 64.7627 64.1499 63.4481 65.6323Z" fill="white"/>
<path d="M49.2945 48.0198C50.2829 48.0198 50.9417 47.3609 50.9417 46.3726C50.9417 35.0162 60.1598 25.7982 71.5161 25.7982C72.5044 25.7982 73.1633 25.1393 73.1633 24.151C73.1633 23.1627 72.5044 22.5038 71.5161 22.5038C60.1598 22.5038 50.9417 13.2857 50.9417 1.92942C50.9417 0.941104 50.2829 0.282227 49.2945 0.282227C48.3062 0.282227 47.6474 0.941104 47.6474 1.92942C47.6474 13.2857 38.4293 22.5038 27.073 22.5038C26.0847 22.5038 25.4258 23.1627 25.4258 24.151C25.4258 25.1393 26.0847 25.7982 27.073 25.7982C38.4293 25.7982 47.6474 35.0162 47.6474 46.3726C47.6474 47.1993 48.4709 48.0198 49.2945 48.0198ZM35.7969 24.1572C41.8853 21.6895 46.8238 16.751 49.2914 10.6627C51.7591 16.751 56.6976 21.6895 62.786 24.1572C56.6976 26.6249 51.7591 31.5634 49.2914 37.6518C46.9885 31.5634 42.05 26.6249 35.7969 24.1572Z" fill="white"/>
</g>
<defs>
<clipPath id="clip0_155_319">
<rect width="79" height="79" fill="white" transform="translate(0 0.291504)"/>
</clipPath>
</defs>
</svg>
