<svg width="105" height="106" viewBox="0 0 105 106" fill="none" xmlns="http://www.w3.org/2000/svg">
<g clip-path="url(#clip0_155_298)">
<path d="M46.0456 60.01C35.7641 59.5721 27.0151 51.0421 26.7962 40.7606C26.7962 39.447 25.7015 38.5713 24.6069 38.5713C23.5122 38.5713 22.4176 39.6659 22.4176 40.7606C22.6365 45.5729 20.8851 50.1664 17.3863 53.6651C14.1065 56.9449 9.29413 58.6964 4.48179 58.6964C3.38713 58.6964 2.29248 59.5721 2.29248 60.8857C2.29248 61.9804 3.1682 63.075 4.48179 63.075C14.7633 63.2939 23.5122 72.0429 23.7312 82.3244C23.7312 83.419 24.8258 84.5137 25.9205 84.5137C27.0151 84.5137 28.1098 83.419 28.1098 82.3244C27.8909 77.512 29.6423 72.9186 33.1411 69.4199C36.4209 66.14 41.0143 64.1697 46.0456 64.3886C47.1402 64.3886 48.2349 63.5129 48.2349 62.1993C48.2349 61.1046 47.3592 60.01 46.0456 60.01ZM29.8612 66.3548C28.1098 68.1063 26.5814 70.2915 25.4867 72.6997C23.0785 67.6684 18.923 63.7318 14.1106 61.3236C16.5188 60.2289 18.4851 58.9153 20.4555 56.9491C22.4258 54.9787 23.7353 53.0125 24.83 50.6042C27.2382 55.6355 31.3937 59.5721 36.2061 61.9804C34.0168 63.075 31.8275 64.3845 29.8612 66.3548Z" fill="white"/>
<path d="M100.518 80.7918C90.2365 80.5729 81.4875 71.8239 81.2686 61.5425C81.2686 60.2289 80.174 59.3531 79.0793 59.3531C77.9846 59.3531 76.89 60.4478 76.89 61.5425C77.1089 66.3548 75.3575 70.9482 71.8587 74.447C68.5789 77.7268 63.7665 79.4783 58.9542 79.4783C57.8595 79.4783 56.7649 80.354 56.7649 81.6676C56.7649 82.7622 57.6406 83.8569 58.9542 83.8569C69.2357 84.2947 77.7657 92.8248 78.2036 102.887V103.106C78.2036 103.982 78.6414 104.639 79.5172 105.077C79.7361 105.296 80.174 105.296 80.3929 105.296C81.7065 105.296 82.5822 104.201 82.5822 103.106C82.3633 98.2939 84.1147 93.7005 87.6135 90.2017C90.8933 86.9219 95.4867 84.9515 100.518 85.1705C101.832 85.1705 102.707 84.2947 102.707 82.9811C102.484 81.8865 101.609 80.7918 100.518 80.7918ZM84.3295 87.1367C82.5781 88.8881 81.0497 91.0733 79.955 93.4816C77.5468 88.4503 73.3912 84.5137 68.5789 82.1054C70.9871 81.0108 72.9534 79.6972 74.9238 77.7309C76.8941 75.7606 78.2036 73.7943 79.2982 71.3861C81.7065 76.4174 85.862 80.354 90.6744 82.7622C88.2661 83.8527 86.0768 85.1663 84.3295 87.1367Z" fill="white"/>
<path d="M65.518 63.7277C66.8316 63.7277 67.7073 62.8519 67.7073 61.5383C67.7073 46.4445 79.9592 34.1927 95.053 34.1927C96.3666 34.1927 97.2423 33.3169 97.2423 32.0034C97.2423 30.6898 96.3666 29.814 95.053 29.814C79.9592 29.814 67.7073 17.5622 67.7073 2.46836C67.7073 1.15478 66.8316 0.279053 65.518 0.279053C64.2044 0.279053 63.3287 1.15478 63.3287 2.46836C63.3287 17.5622 51.0768 29.814 35.983 29.814C34.6694 29.814 33.7937 30.6898 33.7937 32.0034C33.7937 33.3169 34.6694 34.1927 35.983 34.1927C51.0768 34.1927 63.3287 46.4445 63.3287 61.5383C63.3287 62.6371 64.4233 63.7277 65.518 63.7277ZM47.5781 32.0116C55.6702 28.7318 62.234 22.168 65.5139 14.0758C68.7937 22.168 75.3575 28.7318 83.4497 32.0116C75.3575 35.2914 68.7937 41.8552 65.5139 49.9474C62.453 41.8552 55.8892 35.2914 47.5781 32.0116Z" fill="white"/>
</g>
<defs>
<clipPath id="clip0_155_298">
<rect width="105" height="105" fill="white" transform="translate(0 0.291504)"/>
</clipPath>
</defs>
</svg>
